<?xml version="1.0" encoding="utf-8" standalone="no"?>
<!DOCTYPE svg PUBLIC "-//W3C//DTD SVG 1.1//EN"
  "http://www.w3.org/Graphics/SVG/1.1/DTD/svg11.dtd">
<svg xmlns:xlink="http://www.w3.org/1999/xlink" width="739.84252pt" height="136.062992pt" viewBox="0 0 739.84252 136.062992" xmlns="http://www.w3.org/2000/svg" version="1.1">
 <metadata>
  <rdf:RDF xmlns:dc="http://purl.org/dc/elements/1.1/" xmlns:cc="http://creativecommons.org/ns#" xmlns:rdf="http://www.w3.org/1999/02/22-rdf-syntax-ns#">
   <cc:Work>
    <dc:type rdf:resource="http://purl.org/dc/dcmitype/StillImage"/>
    <dc:date>2026-10-01T06:03:23.820744</dc:date>
    <dc:format>image/svg+xml</dc:format>
    <dc:creator>
     <cc:Agent>
      <dc:title>Matplotlib v3.11.2, https://matplotlib.org/</dc:title>
     </cc:Agent>
    </dc:creator>
   </cc:Work>
  </rdf:RDF>
 </metadata>
 <defs>
  <style type="text/css">*{stroke-linejoin: round; stroke-linecap: butt}</style>
 </defs>
 <g id="figure_1">
  <g id="patch_1">
   <path d="M 0 136.062992 
L 739.84252 136.062992 
L 739.84252 0 
L 0 0 
z
" style="fill: #ffffff"/>
  </g>
  <g id="axes_1">
   <g id="patch_2">
    <path d="M 0 2.409449 
L 487.559055 2.409449 
L 487.559055 19.700787 
L 0 19.700787 
z
" clip-path="url(#pcf64cea90f)" style="fill: #f2f2f0"/>
   </g>
   <g id="patch_3">
    <path d="M 0 21.11811 
L 487.559055 21.11811 
L 487.559055 38.409449 
L 0 38.409449 
z
" clip-path="url(#pcf64cea90f)" style="fill: #f1f0ec"/>
   </g>
   <g id="patch_4">
    <path d="M 0 39.826772 
L 487.559055 39.826772 
L 487.559055 57.11811 
L 0 57.11811 
z
" clip-path="url(#pcf64cea90f)" style="fill: #f2f2f0"/>
   </g>
   <g id="patch_5">
    <path d="M 0 58.535433 
L 487.559055 58.535433 
L 487.559055 75.826772 
L 0 75.826772 
z
" clip-path="url(#pcf64cea90f)" style="fill: #f1f0ec"/>
   </g>
   <g id="patch_6">
    <path d="M 0 77.244094 
L 487.559055 77.244094 
L 487.559055 94.535433 
L 0 94.535433 
z
" clip-path="url(#pcf64cea90f)" style="fill: #f2f2f0"/>
   </g>
   <g id="patch_7">
    <path d="M 0 95.952756 
L 487.559055 95.952756 
L 487.559055 113.244094 
L 0 113.244094 
z
" clip-path="url(#pcf64cea90f)" style="fill: #f1f0ec"/>
   </g>
   <g id="patch_8">
    <path d="M 0 114.661417 
L 487.559055 114.661417 
L 487.559055 131.952756 
L 0 131.952756 
z
" clip-path="url(#pcf64cea90f)" style="fill: #f2f2f0"/>
   </g>
   <g id="line2d_1">
    <path d="M 504.566929 11.055118 
L 504.566929 123.307087 
" clip-path="url(#pcf64cea90f)" style="fill: none; stroke: #0f5fa8; stroke-width: 5.102041; stroke-linecap: round"/>
   </g>
   <g id="line2d_2">
    <path d="M 487.559055 123.307087 
L 504.566929 123.307087 
" clip-path="url(#pcf64cea90f)" style="fill: none; stroke: #0f5fa8; stroke-width: 2.55102"/>
   </g>
   <g id="line2d_3">
    <path d="M 487.559055 104.598425 
L 504.566929 104.598425 
" clip-path="url(#pcf64cea90f)" style="fill: none; stroke: #0f5fa8; stroke-width: 2.55102"/>
   </g>
   <g id="line2d_4">
    <path d="M 487.559055 29.76378 
L 504.566929 29.76378 
" clip-path="url(#pcf64cea90f)" style="fill: none; stroke: #0f5fa8; stroke-width: 2.55102"/>
   </g>
   <g id="line2d_5">
    <path d="M 487.559055 11.055118 
L 504.566929 11.055118 
" clip-path="url(#pcf64cea90f)" style="fill: none; stroke: #0f5fa8; stroke-width: 2.55102"/>
   </g>
   <g id="patch_9">
    <path d="M 504.566929 118.488189 
C 505.844916 118.488189 507.070731 118.995938 507.974404 119.899611 
C 508.878077 120.803284 509.385827 122.0291 509.385827 123.307087 
C 509.385827 124.585073 508.878077 125.810889 507.974404 126.714562 
C 507.070731 127.618235 505.844916 128.125984 504.566929 128.125984 
C 503.288943 128.125984 502.063127 127.618235 501.159454 126.714562 
C 500.255781 125.810889 499.748031 124.585073 499.748031 123.307087 
C 499.748031 122.0291 500.255781 120.803284 501.159454 119.899611 
C 502.063127 118.995938 503.288943 118.488189 504.566929 118.488189 
z
" clip-path="url(#pcf64cea90f)" style="fill: #0f5fa8; stroke: #ffffff; stroke-linejoin: miter"/>
   </g>
   <g id="patch_10">
    <path d="M 504.566929 99.779528 
C 505.844916 99.779528 507.070731 100.287277 507.974404 101.19095 
C 508.878077 102.094623 509.385827 103.320439 509.385827 104.598425 
C 509.385827 105.876412 508.878077 107.102227 507.974404 108.0059 
C 507.070731 108.909573 505.844916 109.417323 504.566929 109.417323 
C 503.288943 109.417323 502.063127 108.909573 501.159454 108.0059 
C 500.255781 107.102227 499.748031 105.876412 499.748031 104.598425 
C 499.748031 103.320439 500.255781 102.094623 501.159454 101.19095 
C 502.063127 100.287277 503.288943 99.779528 504.566929 99.779528 
z
" clip-path="url(#pcf64cea90f)" style="fill: #0f5fa8; stroke: #ffffff; stroke-linejoin: miter"/>
   </g>
   <g id="patch_11">
    <path d="M 504.566929 24.944882 
C 505.844916 24.944882 507.070731 25.452631 507.974404 26.356304 
C 508.878077 27.259977 509.385827 28.485793 509.385827 29.76378 
C 509.385827 31.041766 508.878077 32.267582 507.974404 33.171255 
C 507.070731 34.074928 505.844916 34.582677 504.566929 34.582677 
C 503.288943 34.582677 502.063127 34.074928 501.159454 33.171255 
C 500.255781 32.267582 499.748031 31.041766 499.748031 29.76378 
C 499.748031 28.485793 500.255781 27.259977 501.159454 26.356304 
C 502.063127 25.452631 503.288943 24.944882 504.566929 24.944882 
z
" clip-path="url(#pcf64cea90f)" style="fill: #0f5fa8; stroke: #ffffff; stroke-linejoin: miter"/>
   </g>
   <g id="patch_12">
    <path d="M 504.566929 6.23622 
C 505.844916 6.23622 507.070731 6.74397 507.974404 7.647643 
C 508.878077 8.551316 509.385827 9.777132 509.385827 11.055118 
C 509.385827 12.333105 508.878077 13.55892 507.974404 14.462593 
C 507.070731 15.366266 505.844916 15.874016 504.566929 15.874016 
C 503.288943 15.874016 502.063127 15.366266 501.159454 14.462593 
C 500.255781 13.55892 499.748031 12.333105 499.748031 11.055118 
C 499.748031 9.777132 500.255781 8.551316 501.159454 7.647643 
C 502.063127 6.74397 503.288943 6.23622 504.566929 6.23622 
z
" clip-path="url(#pcf64cea90f)" style="fill: #0f5fa8; stroke: #ffffff; stroke-linejoin: miter"/>
   </g>
   <g id="text_1">
    <text style="font-weight: 600; font-size: 14px; font-family: 'IBM Plex Sans'; text-anchor: start; fill: #4a4d55" x="5.669291" y="14.975118" transform="rotate(-0 5.669291 14.975118)">JUDGE</text>
   </g>
   <g id="text_2">
    <text style="font-weight: 500; font-size: 15px; font-family: 'IBM Plex Sans'; text-anchor: start; fill: #222428" x="134.645669" y="15.255118" transform="rotate(-0 134.645669 15.255118)">GeoGuard</text>
   </g>
   <g id="text_3">
    <text style="font-size: 14px; font-family: 'IBM Plex Sans'; text-anchor: start; fill: #4a4d55" x="314.645669" y="14.975118" transform="rotate(-0 314.645669 14.975118)">a claim in text</text>
   </g>
   <g id="text_4">
    <text style="font-weight: 600; font-size: 14px; font-family: 'IBM Plex Sans'; text-anchor: start; fill: #4a4d55" x="5.669291" y="33.68378" transform="rotate(-0 5.669291 33.68378)">CARRY</text>
   </g>
   <g id="text_5">
    <text style="font-weight: 500; font-size: 15px; font-family: 'IBM Plex Sans'; text-anchor: start; fill: #222428" x="134.645669" y="33.96378" transform="rotate(-0 134.645669 33.96378)">MCP, A2A</text>
   </g>
   <g id="text_6">
    <text style="font-size: 14px; font-family: 'IBM Plex Sans'; text-anchor: start; fill: #4a4d55" x="314.645669" y="33.68378" transform="rotate(-0 314.645669 33.68378)">a tool call, an agent card</text>
   </g>
   <g id="text_7">
    <text style="font-weight: 600; font-size: 14px; font-family: 'IBM Plex Sans'; text-anchor: start; fill: #4a4d55" x="5.669291" y="52.392441" transform="rotate(-0 5.669291 52.392441)">RETRIEVE</text>
   </g>
   <g id="text_8">
    <text style="font-weight: 500; font-size: 15px; font-family: 'IBM Plex Sans'; text-anchor: start; fill: #222428" x="134.645669" y="52.672441" transform="rotate(-0 134.645669 52.672441)">RAG</text>
   </g>
   <g id="text_9">
    <text style="font-size: 14px; font-family: 'IBM Plex Sans'; text-anchor: start; fill: #4a4d55" x="314.645669" y="52.392441" transform="rotate(-0 314.645669 52.392441)">a text chunk</text>
   </g>
   <g id="text_10">
    <text style="font-weight: 600; font-size: 14px; font-family: 'IBM Plex Sans'; text-anchor: start; fill: #4a4d55" x="5.669291" y="71.101102" transform="rotate(-0 5.669291 71.101102)">SIGN FILES</text>
   </g>
   <g id="text_11">
    <text style="font-weight: 500; font-size: 15px; font-family: 'IBM Plex Sans'; text-anchor: start; fill: #222428" x="134.645669" y="71.381102" transform="rotate(-0 134.645669 71.381102)">C2PA, CDSE Traceability</text>
   </g>
   <g id="text_12">
    <text style="font-size: 14px; font-family: 'IBM Plex Sans'; text-anchor: start; fill: #4a4d55" x="314.645669" y="71.101102" transform="rotate(-0 314.645669 71.101102)">a file</text>
   </g>
   <g id="text_13">
    <text style="font-weight: 600; font-size: 14px; font-family: 'IBM Plex Sans'; text-anchor: start; fill: #4a4d55" x="5.669291" y="89.809764" transform="rotate(-0 5.669291 89.809764)">RECORD LINEAGE</text>
   </g>
   <g id="text_14">
    <text style="font-weight: 500; font-size: 15px; font-family: 'IBM Plex Sans'; text-anchor: start; fill: #222428" x="134.645669" y="90.089764" transform="rotate(-0 134.645669 90.089764)">W3C PROV</text>
   </g>
   <g id="text_15">
    <text style="font-size: 14px; font-family: 'IBM Plex Sans'; text-anchor: start; fill: #4a4d55" x="314.645669" y="89.809764" transform="rotate(-0 314.645669 89.809764)">entity, activity, agent</text>
   </g>
   <g id="text_16">
    <text style="font-weight: 600; font-size: 14px; font-family: 'IBM Plex Sans'; text-anchor: start; fill: #4a4d55" x="5.669291" y="108.518425" transform="rotate(-0 5.669291 108.518425)">RUN</text>
   </g>
   <g id="text_17">
    <text style="font-weight: 500; font-size: 15px; font-family: 'IBM Plex Sans'; text-anchor: start; fill: #222428" x="134.645669" y="108.798425" transform="rotate(-0 134.645669 108.798425)">openEO</text>
   </g>
   <g id="text_18">
    <text style="font-size: 14px; font-family: 'IBM Plex Sans'; text-anchor: start; fill: #4a4d55" x="314.645669" y="108.518425" transform="rotate(-0 314.645669 108.518425)">a process graph</text>
   </g>
   <g id="text_19">
    <text style="font-weight: 600; font-size: 14px; font-family: 'IBM Plex Sans'; text-anchor: start; fill: #4a4d55" x="5.669291" y="127.227087" transform="rotate(-0 5.669291 127.227087)">FIND</text>
   </g>
   <g id="text_20">
    <text style="font-weight: 500; font-size: 15px; font-family: 'IBM Plex Sans'; text-anchor: start; fill: #222428" x="134.645669" y="127.507087" transform="rotate(-0 134.645669 127.507087)">STAC</text>
   </g>
   <g id="text_21">
    <text style="font-size: 14px; font-family: 'IBM Plex Sans'; text-anchor: start; fill: #4a4d55" x="314.645669" y="127.227087" transform="rotate(-0 314.645669 127.227087)">an asset (file)</text>
   </g>
   <g id="text_22">
    <text style="font-weight: 600; font-size: 14px; font-family: 'IBM Plex Sans'; text-anchor: start; fill: #0f5fa8" x="514.771654" y="127.227087" transform="rotate(-0 514.771654 127.227087)">cite</text>
   </g>
   <g id="text_23">
    <text style="font-weight: 600; font-size: 14px; font-family: 'IBM Plex Sans'; text-anchor: start; fill: #0f5fa8" x="514.771654" y="108.518425" transform="rotate(-0 514.771654 108.518425)">cite</text>
   </g>
   <g id="text_24">
    <text style="font-weight: 600; font-size: 14px; font-family: 'IBM Plex Sans'; text-anchor: start; fill: #0f5fa8" x="514.771654" y="33.68378" transform="rotate(-0 514.771654 33.68378)">hand off</text>
   </g>
   <g id="text_25">
    <text style="font-weight: 600; font-size: 14px; font-family: 'IBM Plex Sans'; text-anchor: start; fill: #0f5fa8" x="514.771654" y="14.975118" transform="rotate(-0 514.771654 14.975118)">resolve · re-hash · re-read</text>
   </g>
   <g id="text_26">
    <text style="font-weight: 600; font-size: 15px; font-family: 'IBM Plex Sans'; fill: #0f5fa8" transform="translate(514.771654 72.847801)">EMEM: is this the observation</text>
    <text style="font-weight: 600; font-size: 15px; font-family: 'IBM Plex Sans'; fill: #0f5fa8" transform="translate(514.771654 90.097801)">the sender cited?</text>
   </g>
  </g>
 </g>
 <defs>
  <clipPath id="pcf64cea90f">
   <rect x="0" y="0" width="739.84252" height="136.062992"/>
  </clipPath>
 </defs>
</svg>
