<?xml version="1.0" encoding="utf-8" standalone="no"?>
<!DOCTYPE svg PUBLIC "-//W3C//DTD SVG 1.1//EN"
  "http://www.w3.org/Graphics/SVG/1.1/DTD/svg11.dtd">
<svg xmlns:xlink="http://www.w3.org/1999/xlink" width="569.76378pt" height="283.464567pt" viewBox="0 0 569.76378 283.464567" xmlns="http://www.w3.org/2000/svg" version="1.1">
 <metadata>
  <rdf:RDF xmlns:dc="http://purl.org/dc/elements/1.1/" xmlns:cc="http://creativecommons.org/ns#" xmlns:rdf="http://www.w3.org/1999/02/22-rdf-syntax-ns#">
   <cc:Work>
    <dc:type rdf:resource="http://purl.org/dc/dcmitype/StillImage"/>
    <dc:date>2026-10-02T02:43:18.286261</dc:date>
    <dc:format>image/svg+xml</dc:format>
    <dc:creator>
     <cc:Agent>
      <dc:title>Matplotlib v3.10.8, https://matplotlib.org/</dc:title>
     </cc:Agent>
    </dc:creator>
   </cc:Work>
  </rdf:RDF>
 </metadata>
 <defs>
  <style type="text/css">*{stroke-linejoin: round; stroke-linecap: butt}</style>
 </defs>
 <g id="figure_1">
  <g id="patch_1">
   <path d="M 0 283.464567 
L 569.76378 283.464567 
L 569.76378 0 
L 0 0 
z
" style="fill: #ffffff"/>
  </g>
  <g id="axes_1">
   <g id="patch_2">
    <path d="M 0 31.748031 
L 569.76378 31.748031 
L 569.76378 47.338583 
L 0 47.338583 
z
" clip-path="url(#p3bfd05b741)" style="fill: #f1f0ec"/>
   </g>
   <g id="patch_3">
    <path d="M 0 62.929134 
L 569.76378 62.929134 
L 569.76378 78.519685 
L 0 78.519685 
z
" clip-path="url(#p3bfd05b741)" style="fill: #f1f0ec"/>
   </g>
   <g id="patch_4">
    <path d="M 0 94.110236 
L 569.76378 94.110236 
L 569.76378 109.700787 
L 0 109.700787 
z
" clip-path="url(#p3bfd05b741)" style="fill: #f1f0ec"/>
   </g>
   <g id="patch_5">
    <path d="M 0 125.291339 
L 569.76378 125.291339 
L 569.76378 140.88189 
L 0 140.88189 
z
" clip-path="url(#p3bfd05b741)" style="fill: #f1f0ec"/>
   </g>
   <g id="patch_6">
    <path d="M 0 156.472441 
L 569.76378 156.472441 
L 569.76378 172.062992 
L 0 172.062992 
z
" clip-path="url(#p3bfd05b741)" style="fill: #f1f0ec"/>
   </g>
   <g id="patch_7">
    <path d="M 0 187.653543 
L 569.76378 187.653543 
L 569.76378 203.244094 
L 0 203.244094 
z
" clip-path="url(#p3bfd05b741)" style="fill: #f1f0ec"/>
   </g>
   <g id="patch_8">
    <path d="M 0 218.834646 
L 569.76378 218.834646 
L 569.76378 234.425197 
L 0 234.425197 
z
" clip-path="url(#p3bfd05b741)" style="fill: #f1f0ec"/>
   </g>
   <g id="line2d_1">
    <path d="M 0 15.590551 
L 569.76378 15.590551 
" clip-path="url(#p3bfd05b741)" style="fill: none; stroke: #d5d6da; stroke-width: 1.417323; stroke-linecap: square"/>
   </g>
   <g id="line2d_2">
    <path d="M 0 234.425197 
L 569.76378 234.425197 
" clip-path="url(#p3bfd05b741)" style="fill: none; stroke: #d5d6da; stroke-width: 1.417323; stroke-linecap: square"/>
   </g>
   <g id="patch_9">
    <path d="M 558.425197 34.440945 
L 568.629921 34.440945 
L 568.629921 44.645669 
L 558.425197 44.645669 
z
" clip-path="url(#p3bfd05b741)" style="fill: #0f5fa8"/>
   </g>
   <g id="patch_10">
    <path d="M 558.425197 50.031496 
L 568.629921 50.031496 
L 568.629921 60.23622 
L 558.425197 60.23622 
z
" clip-path="url(#p3bfd05b741)" style="fill: #0f5fa8"/>
   </g>
   <g id="patch_11">
    <path d="M 558.425197 65.622047 
L 568.629921 65.622047 
L 568.629921 75.826772 
L 558.425197 75.826772 
z
" clip-path="url(#p3bfd05b741)" style="fill: #0f5fa8"/>
   </g>
   <g id="patch_12">
    <path d="M 558.425197 81.212598 
L 568.629921 81.212598 
L 568.629921 91.417323 
L 558.425197 91.417323 
z
" clip-path="url(#p3bfd05b741)" style="fill: #0f5fa8"/>
   </g>
   <g id="patch_13">
    <path d="M 558.425197 96.80315 
L 568.629921 96.80315 
L 568.629921 107.007874 
L 558.425197 107.007874 
z
" clip-path="url(#p3bfd05b741)" style="fill: #0f5fa8"/>
   </g>
   <g id="patch_14">
    <path d="M 558.425197 113.102362 
L 568.629921 113.102362 
L 568.629921 115.086614 
L 558.425197 115.086614 
z
" clip-path="url(#p3bfd05b741)" style="fill: #203045"/>
   </g>
   <g id="patch_15">
    <path d="M 558.425197 116.503937 
L 568.629921 116.503937 
L 568.629921 118.488189 
L 558.425197 118.488189 
z
" clip-path="url(#p3bfd05b741)" style="fill: #203045"/>
   </g>
   <g id="patch_16">
    <path d="M 558.425197 119.905512 
L 568.629921 119.905512 
L 568.629921 121.889764 
L 558.425197 121.889764 
z
" clip-path="url(#p3bfd05b741)" style="fill: #203045"/>
   </g>
   <g id="patch_17">
    <path d="M 558.425197 128.692913 
L 568.629921 128.692913 
L 568.629921 130.677165 
L 558.425197 130.677165 
z
" clip-path="url(#p3bfd05b741)" style="fill: #203045"/>
   </g>
   <g id="patch_18">
    <path d="M 558.425197 132.094488 
L 568.629921 132.094488 
L 568.629921 134.07874 
L 558.425197 134.07874 
z
" clip-path="url(#p3bfd05b741)" style="fill: #203045"/>
   </g>
   <g id="patch_19">
    <path d="M 558.425197 135.496063 
L 568.629921 135.496063 
L 568.629921 137.480315 
L 558.425197 137.480315 
z
" clip-path="url(#p3bfd05b741)" style="fill: #203045"/>
   </g>
   <g id="patch_20">
    <path d="M 558.425197 144.283465 
L 568.629921 144.283465 
L 568.629921 146.267717 
L 558.425197 146.267717 
z
" clip-path="url(#p3bfd05b741)" style="fill: #203045"/>
   </g>
   <g id="patch_21">
    <path d="M 558.425197 147.685039 
L 568.629921 147.685039 
L 568.629921 149.669291 
L 558.425197 149.669291 
z
" clip-path="url(#p3bfd05b741)" style="fill: #203045"/>
   </g>
   <g id="patch_22">
    <path d="M 558.425197 151.086614 
L 568.629921 151.086614 
L 568.629921 153.070866 
L 558.425197 153.070866 
z
" clip-path="url(#p3bfd05b741)" style="fill: #203045"/>
   </g>
   <g id="patch_23">
    <path d="M 558.425197 159.165354 
L 568.629921 159.165354 
L 568.629921 169.370079 
L 558.425197 169.370079 
z
" clip-path="url(#p3bfd05b741)" style="fill: #0f5fa8"/>
   </g>
   <g id="patch_24">
    <path d="M 558.425197 175.464567 
L 568.629921 175.464567 
L 568.629921 177.448819 
L 558.425197 177.448819 
z
" clip-path="url(#p3bfd05b741)" style="fill: #203045"/>
   </g>
   <g id="patch_25">
    <path d="M 558.425197 178.866142 
L 568.629921 178.866142 
L 568.629921 180.850394 
L 558.425197 180.850394 
z
" clip-path="url(#p3bfd05b741)" style="fill: #203045"/>
   </g>
   <g id="patch_26">
    <path d="M 558.425197 182.267717 
L 568.629921 182.267717 
L 568.629921 184.251969 
L 558.425197 184.251969 
z
" clip-path="url(#p3bfd05b741)" style="fill: #203045"/>
   </g>
   <g id="patch_27">
    <path d="M 563.527559 189.496063 
L 569.480315 195.448819 
L 563.527559 201.401575 
L 557.574803 195.448819 
L 563.527559 189.496063 
z
" clip-path="url(#p3bfd05b741)" style="fill: none; stroke: #7a5230; stroke-width: 2.551181; stroke-linejoin: miter"/>
   </g>
   <g id="patch_28">
    <path d="M 558.425197 205.937008 
L 568.629921 205.937008 
L 568.629921 216.141732 
L 558.425197 216.141732 
z
" clip-path="url(#p3bfd05b741)" style="fill: #0f5fa8"/>
   </g>
   <g id="patch_29">
    <path d="M 558.425197 222.23622 
L 568.629921 222.23622 
L 568.629921 224.220472 
L 558.425197 224.220472 
z
" clip-path="url(#p3bfd05b741)" style="fill: #203045"/>
   </g>
   <g id="patch_30">
    <path d="M 558.425197 225.637795 
L 568.629921 225.637795 
L 568.629921 227.622047 
L 558.425197 227.622047 
z
" clip-path="url(#p3bfd05b741)" style="fill: #203045"/>
   </g>
   <g id="patch_31">
    <path d="M 558.425197 229.03937 
L 568.629921 229.03937 
L 568.629921 231.023622 
L 558.425197 231.023622 
z
" clip-path="url(#p3bfd05b741)" style="fill: #203045"/>
   </g>
   <g id="patch_32">
    <path d="M 0 239.527559 
L 10.204724 239.527559 
L 10.204724 249.732283 
L 0 249.732283 
z
" clip-path="url(#p3bfd05b741)" style="fill: #0f5fa8"/>
   </g>
   <g id="patch_33">
    <path d="M 173.750315 240.23622 
L 183.955039 240.23622 
L 183.955039 242.220472 
L 173.750315 242.220472 
z
" clip-path="url(#p3bfd05b741)" style="fill: #203045"/>
   </g>
   <g id="patch_34">
    <path d="M 173.750315 243.637795 
L 183.955039 243.637795 
L 183.955039 245.622047 
L 173.750315 245.622047 
z
" clip-path="url(#p3bfd05b741)" style="fill: #203045"/>
   </g>
   <g id="patch_35">
    <path d="M 173.750315 247.03937 
L 183.955039 247.03937 
L 183.955039 249.023622 
L 173.750315 249.023622 
z
" clip-path="url(#p3bfd05b741)" style="fill: #203045"/>
   </g>
   <g id="patch_36">
    <path d="M 323.982992 238.677165 
L 329.935748 244.629921 
L 323.982992 250.582677 
L 318.030236 244.629921 
L 323.982992 238.677165 
z
" clip-path="url(#p3bfd05b741)" style="fill: none; stroke: #7a5230; stroke-width: 2.551181; stroke-linejoin: miter"/>
   </g>
   <g id="text_1">
    <text style="font-size: 14px; font-family: 'IBM Plex Sans'; text-anchor: start; fill: #7a7d85" x="0" y="11.717008" transform="rotate(-0 0 11.717008)">data need</text>
   </g>
   <g id="text_2">
    <text style="font-size: 14px; font-family: 'IBM Plex Sans'; text-anchor: start; fill: #7a7d85" x="128.976378" y="11.632789" transform="rotate(-0 128.976378 11.632789)">grammar, after emem:</text>
   </g>
   <g id="text_3">
    <text style="font-size: 14px; font-family: 'IBM Plex Sans'; text-anchor: start; fill: #7a7d85" x="347.244094" y="11.717008" transform="rotate(-0 347.244094 11.717008)">what its id hashes</text>
   </g>
   <g id="text_4">
    <text style="font-size: 14px; font-family: 'IBM Plex Sans'; text-anchor: start; fill: #222428" x="0" y="27.732756" transform="rotate(-0 0 27.732756)">a place</text>
   </g>
   <g id="text_5">
    <text style="font-size: 14px; font-family: 'IBM Plex Mono'; text-anchor: start; fill: #222428" x="128.976378" y="27.732756" transform="rotate(-0 128.976378 27.732756)">cell:&lt;cell64&gt;</text>
   </g>
   <g id="text_6">
    <text style="font-size: 14px; font-family: 'IBM Plex Sans'; text-anchor: start; fill: #4a4d55" x="347.244094" y="27.648537" transform="rotate(-0 347.244094 27.648537)">the quantised lat/lng; no hash</text>
   </g>
   <g id="text_7">
    <text style="font-size: 14px; font-family: 'IBM Plex Sans'; text-anchor: start; fill: #222428" x="0" y="43.323307" transform="rotate(-0 0 43.323307)">one value</text>
   </g>
   <g id="text_8">
    <text style="font-size: 14px; font-family: 'IBM Plex Mono'; text-anchor: start; fill: #222428" x="128.976378" y="43.323307" transform="rotate(-0 128.976378 43.323307)">fact:&lt;cell&gt;:&lt;cid&gt;</text>
   </g>
   <g id="text_9">
    <text style="font-size: 14px; font-family: 'IBM Plex Sans'; text-anchor: start; fill: #4a4d55" x="347.244094" y="43.323307" transform="rotate(-0 347.244094 43.323307)">BLAKE3(CBOR(fact)), 52 chars</text>
   </g>
   <g id="text_10">
    <text style="font-size: 14px; font-family: 'IBM Plex Sans'; text-anchor: start; fill: #222428" x="0" y="58.82964" transform="rotate(-0 0 58.82964)">nothing there</text>
   </g>
   <g id="text_11">
    <text style="font-size: 14px; font-family: 'IBM Plex Mono'; text-anchor: start; fill: #222428" x="128.976378" y="58.913858" transform="rotate(-0 128.976378 58.913858)">fact: · kind absence</text>
   </g>
   <g id="text_12">
    <text style="font-size: 14px; font-family: 'IBM Plex Sans'; text-anchor: start; fill: #4a4d55" x="347.244094" y="58.913858" transform="rotate(-0 347.244094 58.913858)">same; + BLAKE3(reason)[:16]</text>
   </g>
   <g id="text_13">
    <text style="font-weight: 600; font-size: 14px; font-family: 'IBM Plex Sans'; text-anchor: start; fill: #0f5fa8" x="0" y="74.461753" transform="rotate(-0 0 74.461753)">an embedding</text>
   </g>
   <g id="text_14">
    <text style="font-size: 14px; font-family: 'IBM Plex Mono'; text-anchor: start; fill: #222428" x="128.976378" y="74.504409" transform="rotate(-0 128.976378 74.504409)">fact: · 128 / 1024 floats</text>
   </g>
   <g id="text_15">
    <text style="font-size: 14px; font-family: 'IBM Plex Sans'; text-anchor: start; fill: #4a4d55" x="347.244094" y="74.504409" transform="rotate(-0 347.244094 74.504409)">same; attester_only</text>
   </g>
   <g id="text_16">
    <text style="font-size: 14px; font-family: 'IBM Plex Sans'; text-anchor: start; fill: #222428" x="0" y="90.094961" transform="rotate(-0 0 90.094961)">a derived value</text>
   </g>
   <g id="text_17">
    <text style="font-size: 14px; font-family: 'IBM Plex Mono'; text-anchor: start; fill: #222428" x="128.976378" y="90.094961" transform="rotate(-0 128.976378 90.094961)">fact: · op, parents</text>
   </g>
   <g id="text_18">
    <text style="font-size: 14px; font-family: 'IBM Plex Sans'; text-anchor: start; fill: #4a4d55" x="347.244094" y="90.094961" transform="rotate(-0 347.244094 90.094961)">same; pure ops re-run</text>
   </g>
   <g id="text_19">
    <text style="font-size: 14px; font-family: 'IBM Plex Sans'; text-anchor: start; fill: #222428" x="0" y="105.685512" transform="rotate(-0 0 105.685512)">a raster</text>
   </g>
   <g id="text_20">
    <text style="font-size: 14px; font-family: 'IBM Plex Mono'; text-anchor: start; fill: #222428" x="128.976378" y="105.685512" transform="rotate(-0 128.976378 105.685512)">raster:&lt;a&gt;:&lt;b&gt;:&lt;t&gt;:&lt;d&gt;</text>
   </g>
   <g id="text_21">
    <text style="font-size: 14px; font-family: 'IBM Plex Sans'; text-anchor: start; fill: #4a4d55" x="347.244094" y="105.741293" transform="rotate(-0 347.244094 105.741293)">fact d names BLAKE3(grid)</text>
   </g>
   <g id="text_22">
    <text style="font-size: 14px; font-family: 'IBM Plex Sans'; text-anchor: start; fill: #222428" x="0" y="121.276063" transform="rotate(-0 0 121.276063)">a raster in time</text>
   </g>
   <g id="text_23">
    <text style="font-size: 14px; font-family: 'IBM Plex Mono'; text-anchor: start; fill: #222428" x="128.976378" y="121.276063" transform="rotate(-0 128.976378 121.276063)">cube:&lt;a&gt;:&lt;b&gt;:&lt;t0..t1&gt;:&lt;d&gt;</text>
   </g>
   <g id="text_24">
    <text style="font-size: 14px; font-family: 'IBM Plex Sans'; text-anchor: start; fill: #4a4d55" x="347.244094" y="121.276063" transform="rotate(-0 347.244094 121.276063)">BLAKE3(CBOR([member d…]))</text>
   </g>
   <g id="text_25">
    <text style="font-size: 14px; font-family: 'IBM Plex Sans'; text-anchor: start; fill: #222428" x="0" y="136.866614" transform="rotate(-0 0 136.866614)">a raster set</text>
   </g>
   <g id="text_26">
    <text style="font-size: 14px; font-family: 'IBM Plex Mono'; text-anchor: start; fill: #222428" x="128.976378" y="136.866614" transform="rotate(-0 128.976378 136.866614)">rasterset:&lt;set&gt;:&lt;d&gt;</text>
   </g>
   <g id="text_27">
    <text style="font-size: 14px; font-family: 'IBM Plex Sans'; text-anchor: start; fill: #4a4d55" x="347.244094" y="137.006614" transform="rotate(-0 347.244094 137.006614)">BLAKE3(CBOR([d…, purpose]))</text>
   </g>
   <g id="text_28">
    <text style="font-size: 14px; font-family: 'IBM Plex Sans'; text-anchor: start; fill: #222428" x="0" y="152.457165" transform="rotate(-0 0 152.457165)">many facts, one id</text>
   </g>
   <g id="text_29">
    <text style="font-size: 14px; font-family: 'IBM Plex Mono'; text-anchor: start; fill: #222428" x="128.976378" y="152.457165" transform="rotate(-0 128.976378 152.457165)">bundle:&lt;cid&gt;</text>
   </g>
   <g id="text_30">
    <text style="font-size: 14px; font-family: 'IBM Plex Sans'; text-anchor: start; fill: #4a4d55" x="347.244094" y="152.597165" transform="rotate(-0 347.244094 152.597165)">BLAKE3(p, cell|band|t|cid)[:16]</text>
   </g>
   <g id="text_31">
    <text style="font-size: 14px; font-family: 'IBM Plex Sans'; text-anchor: start; fill: #222428" x="0" y="168.047717" transform="rotate(-0 0 168.047717)">a file, one chunk</text>
   </g>
   <g id="text_32">
    <text style="font-size: 14px; font-family: 'IBM Plex Mono'; text-anchor: start; fill: #222428" x="128.976378" y="168.047717" transform="rotate(-0 128.976378 168.047717)">tree:&lt;file&gt;#row=i</text>
   </g>
   <g id="text_33">
    <text style="font-size: 14px; font-family: 'IBM Plex Sans'; text-anchor: start; fill: #4a4d55" x="347.244094" y="168.047717" transform="rotate(-0 347.244094 168.047717)">BLAKE3(note)[:16]; root inside</text>
   </g>
   <g id="text_34">
    <text style="font-size: 14px; font-family: 'IBM Plex Sans'; text-anchor: start; fill: #222428" x="0" y="183.554049" transform="rotate(-0 0 183.554049)">a reasoning stage</text>
   </g>
   <g id="text_35">
    <text style="font-size: 14px; font-family: 'IBM Plex Mono'; text-anchor: start; fill: #222428" x="128.976378" y="183.638268" transform="rotate(-0 128.976378 183.638268)">state:&lt;cid&gt;</text>
   </g>
   <g id="text_36">
    <text style="font-size: 14px; font-family: 'IBM Plex Sans'; text-anchor: start; fill: #4a4d55" x="347.244094" y="183.638268" transform="rotate(-0 347.244094 183.638268)">BLAKE3(CBOR(state record))</text>
   </g>
   <g id="text_37">
    <text style="font-size: 14px; font-family: 'IBM Plex Sans'; text-anchor: start; fill: #222428" x="0" y="199.228819" transform="rotate(-0 0 199.228819)">a named object</text>
   </g>
   <g id="text_38">
    <text style="font-size: 14px; font-family: 'IBM Plex Mono'; text-anchor: start; fill: #222428" x="128.976378" y="199.2846" transform="rotate(-0 128.976378 199.2846)">entity:&lt;cid&gt;</text>
   </g>
   <g id="text_39">
    <text style="font-size: 14px; font-family: 'IBM Plex Sans'; text-anchor: start; fill: #4a4d55" x="347.244094" y="199.228819" transform="rotate(-0 347.244094 199.228819)">BLAKE3(anchor)[:16]: a label</text>
   </g>
   <g id="text_40">
    <text style="font-size: 14px; font-family: 'IBM Plex Sans'; text-anchor: start; fill: #222428" x="0" y="214.81937" transform="rotate(-0 0 214.81937)">a device run</text>
   </g>
   <g id="text_41">
    <text style="font-size: 14px; font-family: 'IBM Plex Mono'; text-anchor: start; fill: #222428" x="128.976378" y="214.81937" transform="rotate(-0 128.976378 214.81937)">trace:&lt;cid&gt;</text>
   </g>
   <g id="text_42">
    <text style="font-size: 14px; font-family: 'IBM Plex Sans'; text-anchor: start; fill: #4a4d55" x="347.244094" y="214.875151" transform="rotate(-0 347.244094 214.875151)">BLAKE3(CBOR(signed trace))</text>
   </g>
   <g id="text_43">
    <text style="font-size: 14px; font-family: 'IBM Plex Sans'; text-anchor: start; fill: #222428" x="0" y="230.409921" transform="rotate(-0 0 230.409921)">an evidence chain</text>
   </g>
   <g id="text_44">
    <text style="font-size: 14px; font-family: 'IBM Plex Mono'; text-anchor: start; fill: #222428" x="128.976378" y="230.409921" transform="rotate(-0 128.976378 230.409921)">track.v1 note</text>
   </g>
   <g id="text_45">
    <text style="font-size: 14px; font-family: 'IBM Plex Sans'; text-anchor: start; fill: #4a4d55" x="347.244094" y="230.549921" transform="rotate(-0 347.244094 230.549921)">link = BLAKE3(prev, ref)[:16]</text>
   </g>
   <g id="text_46">
    <text style="font-size: 14px; font-family: 'IBM Plex Sans'; text-anchor: start; fill: #4a4d55" x="15.307087" y="248.409921" transform="rotate(-0 15.307087 248.409921)">hashes observed bytes</text>
   </g>
   <g id="text_47">
    <text style="font-size: 14px; font-family: 'IBM Plex Sans'; text-anchor: start; fill: #4a4d55" x="189.057402" y="248.409921" transform="rotate(-0 189.057402 248.409921)">hashes a list of ids</text>
   </g>
   <g id="text_48">
    <text style="font-size: 14px; font-family: 'IBM Plex Sans'; text-anchor: start; fill: #4a4d55" x="334.187717" y="248.409921" transform="rotate(-0 334.187717 248.409921)">hashes a name</text>
   </g>
   <g id="text_49">
    <text style="font-weight: 600; font-size: 14px; font-family: 'IBM Plex Sans'; text-anchor: start; fill: #0f5fa8" x="0" y="263.107422" transform="rotate(-0 0 263.107422)">An embedding is one row of fourteen.</text>
   </g>
   <g id="text_50">
    <text style="font-size: 14px; font-family: 'IBM Plex Sans'; text-anchor: start; fill: #4a4d55" x="258.613228" y="263.150079" transform="rotate(-0 258.613228 263.150079)">Rules as coded at emem 18adb67.</text>
   </g>
   <g id="text_51">
    <text style="font-size: 14px; font-family: 'IBM Plex Sans'; text-anchor: start; fill: #4a4d55" x="0" y="277.890236" transform="rotate(-0 0 277.890236)">track.v1 is a note, not a token; no hardware is yet admitted behind a trace token.</text>
   </g>
  </g>
 </g>
 <defs>
  <clipPath id="p3bfd05b741">
   <rect x="0" y="0" width="569.76378" height="283.464567"/>
  </clipPath>
 </defs>
</svg>
