<?xml version="1.0" encoding="utf-8" standalone="no"?>
<!DOCTYPE svg PUBLIC "-//W3C//DTD SVG 1.1//EN"
  "http://www.w3.org/Graphics/SVG/1.1/DTD/svg11.dtd">
<svg xmlns:xlink="http://www.w3.org/1999/xlink" width="2270.551181pt" height="138.897638pt" viewBox="0 0 2270.551181 138.897638" xmlns="http://www.w3.org/2000/svg" version="1.1">
 <metadata>
  <rdf:RDF xmlns:dc="http://purl.org/dc/elements/1.1/" xmlns:cc="http://creativecommons.org/ns#" xmlns:rdf="http://www.w3.org/1999/02/22-rdf-syntax-ns#">
   <cc:Work>
    <dc:type rdf:resource="http://purl.org/dc/dcmitype/StillImage"/>
    <dc:date>2026-10-02T10:35:13.739220</dc:date>
    <dc:format>image/svg+xml</dc:format>
    <dc:creator>
     <cc:Agent>
      <dc:title>Matplotlib v3.10.8, https://matplotlib.org/</dc:title>
     </cc:Agent>
    </dc:creator>
   </cc:Work>
  </rdf:RDF>
 </metadata>
 <defs>
  <style type="text/css">*{stroke-linejoin: round; stroke-linecap: butt}</style>
 </defs>
 <g id="figure_1">
  <g id="patch_1">
   <path d="M 0 138.897638 
L 2270.551181 138.897638 
L 2270.551181 0 
L 0 0 
z
" style="fill: #ffffff"/>
  </g>
  <g id="axes_1">
   <g id="patch_2">
    <path d="M 4.251969 36.850394 
L 300.674916 36.850394 
Q 304.926884 36.850394 304.926884 41.102362 
L 304.926884 131.811024 
Q 304.926884 136.062992 300.674916 136.062992 
L 4.251969 136.062992 
Q 0 136.062992 0 131.811024 
L 0 41.102362 
Q 0 36.850394 4.251969 36.850394 
z
" clip-path="url(#p7e06bc7917)" style="fill: #f1f0ec"/>
   </g>
   <g id="patch_3">
    <path d="M 331.856018 36.850394 
L 628.278965 36.850394 
Q 632.530934 36.850394 632.530934 41.102362 
L 632.530934 131.811024 
Q 632.530934 136.062992 628.278965 136.062992 
L 331.856018 136.062992 
Q 327.604049 136.062992 327.604049 131.811024 
L 327.604049 41.102362 
Q 327.604049 36.850394 331.856018 36.850394 
z
" clip-path="url(#p7e06bc7917)" style="fill: #f1f0ec"/>
   </g>
   <g id="patch_4">
    <path d="M 659.460067 36.850394 
L 955.883015 36.850394 
Q 960.134983 36.850394 960.134983 41.102362 
L 960.134983 131.811024 
Q 960.134983 136.062992 955.883015 136.062992 
L 659.460067 136.062992 
Q 655.208099 136.062992 655.208099 131.811024 
L 655.208099 41.102362 
Q 655.208099 36.850394 659.460067 36.850394 
z
" clip-path="url(#p7e06bc7917)" style="fill: #dce8f5"/>
   </g>
   <g id="patch_5">
    <path d="M 987.064117 36.850394 
L 1283.487064 36.850394 
Q 1287.739033 36.850394 1287.739033 41.102362 
L 1287.739033 131.811024 
Q 1287.739033 136.062992 1283.487064 136.062992 
L 987.064117 136.062992 
Q 982.812148 136.062992 982.812148 131.811024 
L 982.812148 41.102362 
Q 982.812148 36.850394 987.064117 36.850394 
z
" clip-path="url(#p7e06bc7917)" style="fill: #dce8f5"/>
   </g>
   <g id="patch_6">
    <path d="M 1314.668166 36.850394 
L 1611.091114 36.850394 
Q 1615.343082 36.850394 1615.343082 41.102362 
L 1615.343082 131.811024 
Q 1615.343082 136.062992 1611.091114 136.062992 
L 1314.668166 136.062992 
Q 1310.416198 136.062992 1310.416198 131.811024 
L 1310.416198 41.102362 
Q 1310.416198 36.850394 1314.668166 36.850394 
z
" clip-path="url(#p7e06bc7917)" style="fill: #dce8f5"/>
   </g>
   <g id="patch_7">
    <path d="M 1642.272216 36.850394 
L 1938.695163 36.850394 
Q 1942.947132 36.850394 1942.947132 41.102362 
L 1942.947132 131.811024 
Q 1942.947132 136.062992 1938.695163 136.062992 
L 1642.272216 136.062992 
Q 1638.020247 136.062992 1638.020247 131.811024 
L 1638.020247 41.102362 
Q 1638.020247 36.850394 1642.272216 36.850394 
z
" clip-path="url(#p7e06bc7917)" style="fill: #dce8f5"/>
   </g>
   <g id="patch_8">
    <path d="M 1969.876265 36.850394 
L 2266.299213 36.850394 
Q 2270.551181 36.850394 2270.551181 41.102362 
L 2270.551181 131.811024 
Q 2270.551181 136.062992 2266.299213 136.062992 
L 1969.876265 136.062992 
Q 1965.624297 136.062992 1965.624297 131.811024 
L 1965.624297 41.102362 
Q 1965.624297 36.850394 1969.876265 36.850394 
z
" clip-path="url(#p7e06bc7917)" style="fill: #dce8f5"/>
   </g>
   <g id="text_1">
    <text style="font-weight: 600; font-size: 24px; font-family: 'IBM Plex Sans'; text-anchor: start; fill: #222428" x="0" y="20.580103" transform="rotate(-0 0 20.580103)">From observation to the next agent</text>
   </g>
   <g id="text_2">
    <text style="font-weight: 600; font-size: 28px; font-family: 'IBM Plex Sans'; text-anchor: start; fill: #222428" x="11.338583" y="67.087559" transform="rotate(-0 11.338583 67.087559)">Observe</text>
   </g>
   <g id="text_3">
    <text style="font-weight: 500; font-size: 17px; font-family: 'IBM Plex Sans'; text-anchor: start; fill: #222428" x="11.338583" y="95.298661" transform="rotate(-0 11.338583 95.298661)">Satellite or sensor</text>
   </g>
   <g id="text_4">
    <text style="font-size: 17px; font-family: 'IBM Plex Sans'; text-anchor: start; fill: #4a4d55" x="11.338583" y="120.810472" transform="rotate(-0 11.338583 120.810472)">Keep the source scene.</text>
   </g>
   <g id="text_5">
    <text style="font-weight: 500; font-size: 20px; font-family: 'IBM Plex Sans'; text-anchor: start; fill: #0f5fa8" x="307.76153" y="87.604724" transform="rotate(-0 307.76153 87.604724)">→</text>
   </g>
   <g id="text_6">
    <text style="font-weight: 600; font-size: 28px; font-family: 'IBM Plex Sans'; text-anchor: start; fill: #222428" x="338.942632" y="67.087559" transform="rotate(-0 338.942632 67.087559)">Locate</text>
   </g>
   <g id="text_7">
    <text style="font-weight: 500; font-size: 17px; font-family: 'IBM Plex Sans'; text-anchor: start; fill: #222428" x="338.942632" y="95.333193" transform="rotate(-0 338.942632 95.333193)">Location · product · time</text>
   </g>
   <g id="text_8">
    <text style="font-size: 17px; font-family: 'IBM Plex Sans'; text-anchor: start; fill: #4a4d55" x="338.942632" y="120.810472" transform="rotate(-0 338.942632 120.810472)">Lookup identity</text>
   </g>
   <g id="text_9">
    <text style="font-weight: 500; font-size: 20px; font-family: 'IBM Plex Sans'; text-anchor: start; fill: #0f5fa8" x="635.365579" y="87.604724" transform="rotate(-0 635.365579 87.604724)">→</text>
   </g>
   <g id="text_10">
    <text style="font-weight: 600; font-size: 28px; font-family: 'IBM Plex Sans'; text-anchor: start; fill: #0f5fa8" x="666.546682" y="67.087559" transform="rotate(-0 666.546682 67.087559)">Record</text>
   </g>
   <g id="text_11">
    <text style="font-weight: 500; font-size: 17px; font-family: 'IBM Plex Sans'; text-anchor: start; fill: #222428" x="666.546682" y="95.298661" transform="rotate(-0 666.546682 95.298661)">Canonical record → CID</text>
   </g>
   <g id="text_12">
    <text style="font-size: 17px; font-family: 'IBM Plex Sans'; text-anchor: start; fill: #4a4d55" x="666.546682" y="120.810472" transform="rotate(-0 666.546682 120.810472)">Batch attestation</text>
   </g>
   <g id="text_13">
    <text style="font-weight: 500; font-size: 20px; font-family: 'IBM Plex Sans'; text-anchor: start; fill: #0f5fa8" x="962.969629" y="87.604724" transform="rotate(-0 962.969629 87.604724)">→</text>
   </g>
   <g id="text_14">
    <text style="font-weight: 600; font-size: 28px; font-family: 'IBM Plex Sans'; text-anchor: start; fill: #0f5fa8" x="994.150731" y="67.087559" transform="rotate(-0 994.150731 67.087559)">Hand off</text>
   </g>
   <g id="text_15">
    <text style="font-weight: 500; font-size: 17px; font-family: 'IBM Plex Sans'; text-anchor: start; fill: #222428" x="994.150731" y="95.298661" transform="rotate(-0 994.150731 95.298661)">Pass the reference</text>
   </g>
   <g id="text_16">
    <text style="font-size: 17px; font-family: 'IBM Plex Sans'; text-anchor: start; fill: #4a4d55" x="994.150731" y="120.810472" transform="rotate(-0 994.150731 120.810472)">MCP · REST · A2A</text>
   </g>
   <g id="text_17">
    <text style="font-weight: 500; font-size: 20px; font-family: 'IBM Plex Sans'; text-anchor: start; fill: #0f5fa8" x="1290.573678" y="87.604724" transform="rotate(-0 1290.573678 87.604724)">→</text>
   </g>
   <g id="text_18">
    <text style="font-weight: 600; font-size: 28px; font-family: 'IBM Plex Sans'; text-anchor: start; fill: #0f5fa8" x="1321.754781" y="67.087559" transform="rotate(-0 1321.754781 67.087559)">Resolve</text>
   </g>
   <g id="text_19">
    <text style="font-weight: 500; font-size: 17px; font-family: 'IBM Plex Sans'; text-anchor: start; fill: #222428" x="1321.754781" y="95.298661" transform="rotate(-0 1321.754781 95.298661)">Retrieve the same record</text>
   </g>
   <g id="text_20">
    <text style="font-size: 17px; font-family: 'IBM Plex Sans'; text-anchor: start; fill: #4a4d55" x="1321.754781" y="120.810472" transform="rotate(-0 1321.754781 120.810472)">Recover its provenance.</text>
   </g>
   <g id="text_21">
    <text style="font-weight: 500; font-size: 20px; font-family: 'IBM Plex Sans'; text-anchor: start; fill: #0f5fa8" x="1618.177728" y="87.604724" transform="rotate(-0 1618.177728 87.604724)">→</text>
   </g>
   <g id="text_22">
    <text style="font-weight: 600; font-size: 28px; font-family: 'IBM Plex Sans'; text-anchor: start; fill: #0f5fa8" x="1649.35883" y="67.087559" transform="rotate(-0 1649.35883 67.087559)">Check</text>
   </g>
   <g id="text_23">
    <text style="font-weight: 500; font-size: 17px; font-family: 'IBM Plex Sans'; text-anchor: start; fill: #222428" x="1649.35883" y="95.230927" transform="rotate(-0 1649.35883 95.230927)">Hash · binding · signature</text>
   </g>
   <g id="text_24">
    <text style="font-size: 17px; font-family: 'IBM Plex Sans'; text-anchor: start; fill: #4a4d55" x="1649.35883" y="120.810472" transform="rotate(-0 1649.35883 120.810472)">Re-read source if needed.</text>
   </g>
   <g id="text_25">
    <text style="font-weight: 500; font-size: 20px; font-family: 'IBM Plex Sans'; text-anchor: start; fill: #0f5fa8" x="1945.781777" y="87.604724" transform="rotate(-0 1945.781777 87.604724)">→</text>
   </g>
   <g id="text_26">
    <text style="font-weight: 600; font-size: 28px; font-family: 'IBM Plex Sans'; text-anchor: start; fill: #0f5fa8" x="1976.96288" y="67.087559" transform="rotate(-0 1976.96288 67.087559)">Continue</text>
   </g>
   <g id="text_27">
    <text style="font-weight: 500; font-size: 17px; font-family: 'IBM Plex Sans'; text-anchor: start; fill: #222428" x="1976.96288" y="95.298661" transform="rotate(-0 1976.96288 95.298661)">Reason with cited evidence</text>
   </g>
   <g id="text_28">
    <text style="font-size: 17px; font-family: 'IBM Plex Sans'; text-anchor: start; fill: #4a4d55" x="1976.96288" y="120.810472" transform="rotate(-0 1976.96288 120.810472)">Carry the reference onward.</text>
   </g>
  </g>
 </g>
 <defs>
  <clipPath id="p7e06bc7917">
   <rect x="0" y="0" width="2270.551181" height="138.897638"/>
  </clipPath>
 </defs>
</svg>
