<?xml version="1.0" encoding="utf-8" standalone="no"?>
<!DOCTYPE svg PUBLIC "-//W3C//DTD SVG 1.1//EN"
  "http://www.w3.org/Graphics/SVG/1.1/DTD/svg11.dtd">
<svg xmlns:xlink="http://www.w3.org/1999/xlink" width="548.503937pt" height="538.582677pt" viewBox="0 0 548.503937 538.582677" xmlns="http://www.w3.org/2000/svg" version="1.1">
 <metadata>
  <rdf:RDF xmlns:dc="http://purl.org/dc/elements/1.1/" xmlns:cc="http://creativecommons.org/ns#" xmlns:rdf="http://www.w3.org/1999/02/22-rdf-syntax-ns#">
   <cc:Work>
    <dc:type rdf:resource="http://purl.org/dc/dcmitype/StillImage"/>
    <dc:date>2026-10-02T02:39:15.557966</dc:date>
    <dc:format>image/svg+xml</dc:format>
    <dc:creator>
     <cc:Agent>
      <dc:title>Matplotlib v3.10.8, https://matplotlib.org/</dc:title>
     </cc:Agent>
    </dc:creator>
   </cc:Work>
  </rdf:RDF>
 </metadata>
 <defs>
  <style type="text/css">*{stroke-linejoin: round; stroke-linecap: butt}</style>
 </defs>
 <g id="figure_1">
  <g id="patch_1">
   <path d="M 0 538.582677 
L 548.503937 538.582677 
L 548.503937 0 
L 0 0 
z
" style="fill: #ffffff"/>
  </g>
  <g id="axes_1">
   <g id="patch_2">
    <path d="M 0 36.850394 
L 548.503937 36.850394 
L 548.503937 102.047244 
L 0 102.047244 
z
" clip-path="url(#pfb2e126110)" style="fill: #dce8f5"/>
   </g>
   <g id="patch_3">
    <path d="M 0 36.850394 
L 4.535433 36.850394 
L 4.535433 102.047244 
L 0 102.047244 
z
" clip-path="url(#pfb2e126110)" style="fill: #0f5fa8"/>
   </g>
   <g id="patch_4">
    <path d="M 0 107.716535 
L 548.503937 107.716535 
L 548.503937 172.913386 
L 0 172.913386 
z
" clip-path="url(#pfb2e126110)" style="fill: #f1f0ec"/>
   </g>
   <g id="patch_5">
    <path d="M 0 107.716535 
L 4.535433 107.716535 
L 4.535433 172.913386 
L 0 172.913386 
z
" clip-path="url(#pfb2e126110)" style="fill: #0f5fa8"/>
   </g>
   <g id="patch_6">
    <path d="M 0 178.582677 
L 548.503937 178.582677 
L 548.503937 243.779528 
L 0 243.779528 
z
" clip-path="url(#pfb2e126110)" style="fill: #dce8f5"/>
   </g>
   <g id="patch_7">
    <path d="M 0 178.582677 
L 4.535433 178.582677 
L 4.535433 243.779528 
L 0 243.779528 
z
" clip-path="url(#pfb2e126110)" style="fill: #0f5fa8"/>
   </g>
   <g id="patch_8">
    <path d="M 0 249.448819 
L 548.503937 249.448819 
L 548.503937 314.645669 
L 0 314.645669 
z
" clip-path="url(#pfb2e126110)" style="fill: #f1f0ec"/>
   </g>
   <g id="patch_9">
    <path d="M 0 249.448819 
L 4.535433 249.448819 
L 4.535433 314.645669 
L 0 314.645669 
z
" clip-path="url(#pfb2e126110)" style="fill: #0f5fa8"/>
   </g>
   <g id="patch_10">
    <path d="M 0 320.314961 
L 548.503937 320.314961 
L 548.503937 385.511811 
L 0 385.511811 
z
" clip-path="url(#pfb2e126110)" style="fill: #dce8f5"/>
   </g>
   <g id="patch_11">
    <path d="M 0 320.314961 
L 4.535433 320.314961 
L 4.535433 385.511811 
L 0 385.511811 
z
" clip-path="url(#pfb2e126110)" style="fill: #0f5fa8"/>
   </g>
   <g id="patch_12">
    <path d="M 0 391.181102 
L 548.503937 391.181102 
L 548.503937 456.377953 
L 0 456.377953 
z
" clip-path="url(#pfb2e126110)" style="fill: #f1f0ec"/>
   </g>
   <g id="patch_13">
    <path d="M 0 391.181102 
L 4.535433 391.181102 
L 4.535433 456.377953 
L 0 456.377953 
z
" clip-path="url(#pfb2e126110)" style="fill: #0f5fa8"/>
   </g>
   <g id="patch_14">
    <path d="M 0 462.047244 
L 548.503937 462.047244 
L 548.503937 527.244094 
L 0 527.244094 
z
" clip-path="url(#pfb2e126110)" style="fill: #dce8f5"/>
   </g>
   <g id="patch_15">
    <path d="M 0 462.047244 
L 4.535433 462.047244 
L 4.535433 527.244094 
L 0 527.244094 
z
" clip-path="url(#pfb2e126110)" style="fill: #0f5fa8"/>
   </g>
   <g id="text_1">
    <text style="font-weight: 600; font-size: 14px; font-family: 'IBM Plex Sans'; text-anchor: start; fill: #4a4d55" x="11.338583" y="17.953228" transform="rotate(-0 11.338583 17.953228)">WHAT MOVED</text>
   </g>
   <g id="text_2">
    <text style="font-weight: 600; font-size: 14px; font-family: 'IBM Plex Sans'; text-anchor: start; fill: #4a4d55" x="266.456693" y="17.953228" transform="rotate(-0 266.456693 17.953228)">WHAT TO CHECK</text>
   </g>
   <g id="text_3">
    <text style="font-weight: 700; font-size: 17px; font-family: 'IBM Plex Sans'; text-anchor: start; fill: #0f5fa8" x="14.173228" y="55.613622" transform="rotate(-0 14.173228 55.613622)">PLACE</text>
   </g>
   <g id="text_4">
    <text style="font-weight: 600; font-size: 20px; font-family: 'IBM Plex Sans'; text-anchor: start; fill: #222428" x="14.173228" y="76.266142" transform="rotate(-0 14.173228 76.266142)">Compare the requested cell</text>
   </g>
   <g id="text_5">
    <text style="font-size: 15px; font-family: 'IBM Plex Sans'; text-anchor: start; fill: #222428" x="14.173228" y="94.758661" transform="rotate(-0 14.173228 94.758661)">Coordinates keep the question anchored.</text>
   </g>
   <g id="text_6">
    <text style="font-weight: 700; font-size: 17px; font-family: 'IBM Plex Sans'; text-anchor: start; fill: #0f5fa8" x="14.173228" y="126.479764" transform="rotate(-0 14.173228 126.479764)">TIME</text>
   </g>
   <g id="text_7">
    <text style="font-weight: 600; font-size: 20px; font-family: 'IBM Plex Sans'; text-anchor: start; fill: #222428" x="14.173228" y="147.132283" transform="rotate(-0 14.173228 147.132283)">Bind the observation time</text>
   </g>
   <g id="text_8">
    <text style="font-size: 15px; font-family: 'IBM Plex Sans'; text-anchor: start; fill: #222428" x="14.173228" y="165.624803" transform="rotate(-0 14.173228 165.624803)">Requested day and returned day remain visible.</text>
   </g>
   <g id="text_9">
    <text style="font-weight: 700; font-size: 17px; font-family: 'IBM Plex Sans'; text-anchor: start; fill: #0f5fa8" x="14.173228" y="197.345906" transform="rotate(-0 14.173228 197.345906)">PRODUCT</text>
   </g>
   <g id="text_10">
    <text style="font-weight: 600; font-size: 20px; font-family: 'IBM Plex Sans'; text-anchor: start; fill: #222428" x="14.173228" y="218.0578" transform="rotate(-0 14.173228 218.0578)">Inspect the band and convention</text>
   </g>
   <g id="text_11">
    <text style="font-size: 15px; font-family: 'IBM Plex Sans'; text-anchor: start; fill: #222428" x="14.173228" y="236.400711" transform="rotate(-0 14.173228 236.400711)">Keep the product, grid and units explicit.</text>
   </g>
   <g id="text_12">
    <text style="font-weight: 700; font-size: 17px; font-family: 'IBM Plex Sans'; text-anchor: start; fill: #0f5fa8" x="14.173228" y="268.212047" transform="rotate(-0 14.173228 268.212047)">SOURCE PIXEL / SCENE</text>
   </g>
   <g id="text_13">
    <text style="font-weight: 600; font-size: 20px; font-family: 'IBM Plex Sans'; text-anchor: start; fill: #222428" x="14.173228" y="288.864567" transform="rotate(-0 14.173228 288.864567)">Re-read the named source</text>
   </g>
   <g id="text_14">
    <text style="font-size: 15px; font-family: 'IBM Plex Sans'; text-anchor: start; fill: #222428" x="14.173228" y="307.266852" transform="rotate(-0 14.173228 307.266852)">Test the scene and the containing pixel.</text>
   </g>
   <g id="text_15">
    <text style="font-weight: 700; font-size: 17px; font-family: 'IBM Plex Sans'; text-anchor: start; fill: #0f5fa8" x="14.173228" y="339.078189" transform="rotate(-0 14.173228 339.078189)">DERIVATION</text>
   </g>
   <g id="text_16">
    <text style="font-weight: 600; font-size: 20px; font-family: 'IBM Plex Sans'; text-anchor: start; fill: #222428" x="14.173228" y="359.790084" transform="rotate(-0 14.173228 359.790084)">Recompute from the recipe</text>
   </g>
   <g id="text_17">
    <text style="font-size: 15px; font-family: 'IBM Plex Sans'; text-anchor: start; fill: #222428" x="14.173228" y="378.223228" transform="rotate(-0 14.173228 378.223228)">Check inputs, parameters and offset rules.</text>
   </g>
   <g id="text_18">
    <text style="font-weight: 700; font-size: 17px; font-family: 'IBM Plex Sans'; text-anchor: start; fill: #0f5fa8" x="14.173228" y="409.944331" transform="rotate(-0 14.173228 409.944331)">VALUE REPRESENTATION</text>
   </g>
   <g id="text_19">
    <text style="font-weight: 600; font-size: 20px; font-family: 'IBM Plex Sans'; text-anchor: start; fill: #222428" x="14.173228" y="430.59685" transform="rotate(-0 14.173228 430.59685)">Resolve the exact record</text>
   </g>
   <g id="text_20">
    <text style="font-size: 15px; font-family: 'IBM Plex Sans'; text-anchor: start; fill: #222428" x="14.173228" y="449.08937" transform="rotate(-0 14.173228 449.08937)">0.47 and 0.4709 lead to different test decisions.</text>
   </g>
   <g id="text_21">
    <text style="font-weight: 700; font-size: 17px; font-family: 'IBM Plex Sans'; text-anchor: start; fill: #0f5fa8" x="14.173228" y="480.810472" transform="rotate(-0 14.173228 480.810472)">REFERENT</text>
   </g>
   <g id="text_22">
    <text style="font-weight: 600; font-size: 20px; font-family: 'IBM Plex Sans'; text-anchor: start; fill: #222428" x="14.173228" y="501.522367" transform="rotate(-0 14.173228 501.522367)">Retain the application identity</text>
   </g>
   <g id="text_23">
    <text style="font-size: 15px; font-family: 'IBM Plex Sans'; text-anchor: start; fill: #222428" x="14.173228" y="519.955512" transform="rotate(-0 14.173228 519.955512)">The place record accompanies the object meant.</text>
   </g>
  </g>
 </g>
 <defs>
  <clipPath id="pfb2e126110">
   <rect x="0" y="0" width="548.503937" height="538.582677"/>
  </clipPath>
 </defs>
</svg>
